# xmcd
#
# Track frame offsets:
#	150
#	12624
#	21561
#	47997
#	67171
#	92975
#	109797
#	125118
#	141704
#	165709
#	177017
#	190825
#	208509
#	224752
#	235329
#	247192
#	258623
#
# Disc length: 3868 seconds
#
# Revision: 1
# Processed by: cddbd v1.5.1PL0 Copyright (c) Steve Scherf et al.
# Submitted via: CDex 1.50Beta5
#
DISCID=1d0f1a11
DTITLE=大江戸宅急便 - 町田
DYEAR=2001
DGENRE=Anime
TTITLE0=Flash Back Season "E-MIX"
TTITLE1=maple "Leaf" -KAEDE-
TTITLE2=technical power (90sclassic)
TTITLE3=鳥の詩 鳥の郷愁
TTITLE4=ソノ瞳デ貴女ハ何ヲ語ルノカ
TTITLE5=プリンセスタイム
TTITLE6=onikagura - dreami'n -
TTITLE7=a Prayer
TTITLE8=無幻
TTITLE9=熱帯五月雨
TTITLE10=Fantasmagoria - Core☆Mix -
TTITLE11=あなたの横顔
TTITLE12=お嫁サンバ♪
TTITLE13=私だって……
TTITLE14=pure snows
TTITLE15=一番近くにいるのは……?
TTITLE16=tameiki.(brazilian.sd.jp)
EXTD=
EXTT0=
EXTT1=
EXTT2=
EXTT3=
EXTT4=
EXTT5=
EXTT6=
EXTT7=
EXTT8=
EXTT9=
EXTT10=
EXTT11=
EXTT12=
EXTT13=
EXTT14=
EXTT15=
EXTT16=
PLAYORDER=
